<?plantuml 1.2026.2?><svg xmlns="http://www.w3.org/2000/svg" xmlns:xlink="http://www.w3.org/1999/xlink" contentStyleType="text/css" data-diagram-type="DESCRIPTION" height="1011px" preserveAspectRatio="none" style="width:1467px;height:1011px;background:#FEFEFE;" version="1.1" viewBox="0 0 1467 1011" width="1467px" zoomAndPan="magnify"><title>Agent&#65288;&#26234;&#33021;&#20307;&#65289;&#26680;&#24515;&#26550;&#26500;&#22270;</title><defs><filter height="1" id="b133spgandt3g10" width="1" x="0" y="0"><feFlood flood-color="#4A90E2" result="flood"/><feComposite in="SourceGraphic" in2="flood" operator="over"/></filter><filter height="1" id="b133spgandt3g11" width="1" x="0" y="0"><feFlood flood-color="#50C878" result="flood"/><feComposite in="SourceGraphic" in2="flood" operator="over"/></filter><filter height="1" id="b133spgandt3g12" width="1" x="0" y="0"><feFlood flood-color="#FF6B6B" result="flood"/><feComposite in="SourceGraphic" in2="flood" operator="over"/></filter><filter height="1" id="b133spgandt3g13" width="1" x="0" y="0"><feFlood flood-color="#9B59B6" result="flood"/><feComposite in="SourceGraphic" in2="flood" operator="over"/></filter></defs><g><rect fill="#FEFEFE" height="1011" style="stroke:none;stroke-width:1;" width="1467" x="0" y="0"/><g class="title" data-source-line="1"><text fill="#000000" font-family="sans-serif" font-size="14" font-weight="bold" lengthAdjust="spacing" textLength="182.6152" x="635.6" y="23.5352">Agent&#65288;&#26234;&#33021;&#20307;&#65289;&#26680;&#24515;&#26550;&#26500;&#22270;</text></g><!--cluster Agent ????--><g class="cluster" data-qualified-name="Agent ...." data-source-line="18" id="ent0002"><path d="M717.5,43.4883 L821.7295,43.4883 A3.75,3.75 0 0 1 824.2295,45.9883 L831.2295,65.9766 L964.5,65.9766 A2.5,2.5 0 0 1 967,68.4766 L967,694.4883 A2.5,2.5 0 0 1 964.5,696.9883 L717.5,696.9883 A2.5,2.5 0 0 1 715,694.4883 L715,45.9883 A2.5,2.5 0 0 1 717.5,43.4883" fill="#4A90E2" style="stroke:#000000;stroke-width:1.5;"/><line style="stroke:#000000;stroke-width:1.5;" x1="715" x2="831.2295" y1="65.9766" y2="65.9766"/><text fill="#000000" font-family="sans-serif" font-size="14" font-weight="bold" lengthAdjust="spacing" textLength="103.2295" x="719" y="59.0234">Agent &#26680;&#24515;&#32452;&#20214;</text><text fill="#000000" font-family="sans-serif" font-size="14" font-style="italic" lengthAdjust="spacing" textLength="91.4443" x="799.2778" y="81.5117">&#171;AgentColor&#187;</text></g><!--cluster ????--><g class="cluster" data-qualified-name="...." data-source-line="25" id="ent0007"><path d="M1005.5,567.0083 L1062.5,567.0083 A3.75,3.75 0 0 1 1065,569.5083 L1072,589.4966 L1289.5,589.4966 A2.5,2.5 0 0 1 1292,591.9966 L1292,694.4883 A2.5,2.5 0 0 1 1289.5,696.9883 L1005.5,696.9883 A2.5,2.5 0 0 1 1003,694.4883 L1003,569.5083 A2.5,2.5 0 0 1 1005.5,567.0083" fill="#50C878" style="stroke:#000000;stroke-width:1.5;"/><line style="stroke:#000000;stroke-width:1.5;" x1="1003" x2="1072" y1="589.4966" y2="589.4966"/><text fill="#000000" font-family="sans-serif" font-size="14" font-weight="bold" lengthAdjust="spacing" textLength="56" x="1007" y="582.5434">&#22806;&#37096;&#20132;&#20114;</text><text fill="#000000" font-family="sans-serif" font-size="14" font-style="italic" lengthAdjust="spacing" textLength="99.7979" x="1101.6011" y="605.0317">&#171;HumanColor&#187;</text></g><!--cluster ?????--><g class="cluster" data-qualified-name="....." data-source-line="30" id="ent0010"><path d="M277.5,567.0083 L348.5,567.0083 A3.75,3.75 0 0 1 351,569.5083 L358,589.4966 L688.5,589.4966 A2.5,2.5 0 0 1 691,591.9966 L691,694.4883 A2.5,2.5 0 0 1 688.5,696.9883 L277.5,696.9883 A2.5,2.5 0 0 1 275,694.4883 L275,569.5083 A2.5,2.5 0 0 1 277.5,567.0083" fill="#FF6B6B" style="stroke:#000000;stroke-width:1.5;"/><line style="stroke:#000000;stroke-width:1.5;" x1="275" x2="358" y1="589.4966" y2="589.4966"/><text fill="#000000" font-family="sans-serif" font-size="14" font-weight="bold" lengthAdjust="spacing" textLength="70" x="279" y="582.5434">&#24037;&#20855;&#19982;&#36164;&#28304;</text><text fill="#000000" font-family="sans-serif" font-size="14" font-style="italic" lengthAdjust="spacing" textLength="81.4297" x="446.2852" y="605.0317">&#171;ToolColor&#187;</text></g><!--cluster ????--><g class="cluster" data-qualified-name="...." data-source-line="36" id="ent0014"><path d="M8.5,748.1183 L65.5,748.1183 A3.75,3.75 0 0 1 68,750.6183 L75,770.6066 L377.5,770.6066 A2.5,2.5 0 0 1 380,773.1066 L380,874.5983 A2.5,2.5 0 0 1 377.5,877.0983 L8.5,877.0983 A2.5,2.5 0 0 1 6,874.5983 L6,750.6183 A2.5,2.5 0 0 1 8.5,748.1183" fill="#9B59B6" style="stroke:#000000;stroke-width:1.5;"/><line style="stroke:#000000;stroke-width:1.5;" x1="6" x2="75" y1="770.6066" y2="770.6066"/><text fill="#000000" font-family="sans-serif" font-size="14" font-weight="bold" lengthAdjust="spacing" textLength="56" x="10" y="763.6534">&#35760;&#24518;&#31995;&#32479;</text><text fill="#000000" font-family="sans-serif" font-size="14" font-style="italic" lengthAdjust="spacing" textLength="105.9023" x="144.0488" y="786.1417">&#171;MemoryColor&#187;</text></g><!--entity Perception--><g class="entity" data-qualified-name="Agent .....Perception" data-source-line="19" id="ent0003"><rect fill="#F1F1F1" height="62.9766" rx="2.5" ry="2.5" style="stroke:#181818;stroke-width:0.5;" width="111.6201" x="839.19" y="94.4883"/><rect fill="#F1F1F1" height="10" style="stroke:#181818;stroke-width:0.5;" width="15" x="930.8101" y="99.4883"/><rect fill="#F1F1F1" height="2" style="stroke:#181818;stroke-width:0.5;" width="4" x="928.8101" y="101.4883"/><rect fill="#F1F1F1" height="2" style="stroke:#181818;stroke-width:0.5;" width="4" x="928.8101" y="105.4883"/><text fill="#000000" font-family="sans-serif" font-size="14" lengthAdjust="spacing" textLength="56" x="854.19" y="128.0234">&#24863;&#30693;&#27169;&#22359;</text><text fill="#000000" font-family="sans-serif" font-size="14" lengthAdjust="spacing" textLength="71.6201" x="854.19" y="144.5117">Perception</text></g><!--entity Planning--><g class="entity" data-qualified-name="Agent .....Planning" data-source-line="20" id="ent0004"><rect fill="#F1F1F1" height="62.9766" rx="2.5" ry="2.5" style="stroke:#181818;stroke-width:0.5;" width="98.3584" x="730.82" y="265.6983"/><rect fill="#F1F1F1" height="10" style="stroke:#181818;stroke-width:0.5;" width="15" x="809.1784" y="270.6983"/><rect fill="#F1F1F1" height="2" style="stroke:#181818;stroke-width:0.5;" width="4" x="807.1784" y="272.6983"/><rect fill="#F1F1F1" height="2" style="stroke:#181818;stroke-width:0.5;" width="4" x="807.1784" y="276.6983"/><text fill="#000000" font-family="sans-serif" font-size="14" lengthAdjust="spacing" textLength="56" x="745.82" y="299.2334">&#35268;&#21010;&#27169;&#22359;</text><text fill="#000000" font-family="sans-serif" font-size="14" lengthAdjust="spacing" textLength="58.3584" x="745.82" y="315.7217">Planning</text></g><!--entity Action--><g class="entity" data-qualified-name="Agent .....Action" data-source-line="21" id="ent0005"><rect fill="#F1F1F1" height="62.9766" rx="2.5" ry="2.5" style="stroke:#181818;stroke-width:0.5;" width="96" x="855" y="436.8983"/><rect fill="#F1F1F1" height="10" style="stroke:#181818;stroke-width:0.5;" width="15" x="931" y="441.8983"/><rect fill="#F1F1F1" height="2" style="stroke:#181818;stroke-width:0.5;" width="4" x="929" y="443.8983"/><rect fill="#F1F1F1" height="2" style="stroke:#181818;stroke-width:0.5;" width="4" x="929" y="447.8983"/><text fill="#000000" font-family="sans-serif" font-size="14" lengthAdjust="spacing" textLength="56" x="870" y="470.4334">&#34892;&#21160;&#27169;&#22359;</text><text fill="#000000" font-family="sans-serif" font-size="14" lengthAdjust="spacing" textLength="43.4014" x="870" y="486.9217">Action</text></g><!--entity Reflection--><g class="entity" data-qualified-name="Agent .....Reflection" data-source-line="22" id="ent0006"><rect fill="#F1F1F1" height="62.9766" rx="2.5" ry="2.5" style="stroke:#181818;stroke-width:0.5;" width="107.3887" x="787.31" y="618.0083"/><rect fill="#F1F1F1" height="10" style="stroke:#181818;stroke-width:0.5;" width="15" x="874.6987" y="623.0083"/><rect fill="#F1F1F1" height="2" style="stroke:#181818;stroke-width:0.5;" width="4" x="872.6987" y="625.0083"/><rect fill="#F1F1F1" height="2" style="stroke:#181818;stroke-width:0.5;" width="4" x="872.6987" y="629.0083"/><text fill="#000000" font-family="sans-serif" font-size="14" lengthAdjust="spacing" textLength="56" x="802.31" y="651.5434">&#21453;&#24605;&#27169;&#22359;</text><text fill="#000000" font-family="sans-serif" font-size="14" lengthAdjust="spacing" textLength="67.3887" x="802.31" y="668.0317">Reflection</text></g><!--entity Human--><g class="entity" data-qualified-name=".....Human" data-source-line="26" id="ent0008"><rect fill="#F1F1F1" height="62.9766" rx="2.5" ry="2.5" style="stroke:#181818;stroke-width:0.5;" width="96" x="1180" y="618.0083"/><rect fill="#F1F1F1" height="10" style="stroke:#181818;stroke-width:0.5;" width="15" x="1256" y="623.0083"/><rect fill="#F1F1F1" height="2" style="stroke:#181818;stroke-width:0.5;" width="4" x="1254" y="625.0083"/><rect fill="#F1F1F1" height="2" style="stroke:#181818;stroke-width:0.5;" width="4" x="1254" y="629.0083"/><text fill="#000000" font-family="sans-serif" font-size="14" lengthAdjust="spacing" textLength="56" x="1195" y="651.5434">&#20154;&#31867;&#29992;&#25143;</text><text fill="#000000" font-family="sans-serif" font-size="14" lengthAdjust="spacing" textLength="48.4668" x="1195" y="668.0317">Human</text></g><!--entity Environment--><g class="entity" data-qualified-name=".....Environment" data-source-line="27" id="ent0009"><rect fill="#F1F1F1" height="62.9766" rx="2.5" ry="2.5" style="stroke:#181818;stroke-width:0.5;" width="125.3809" x="1019.31" y="618.0083"/><rect fill="#F1F1F1" height="10" style="stroke:#181818;stroke-width:0.5;" width="15" x="1124.6909" y="623.0083"/><rect fill="#F1F1F1" height="2" style="stroke:#181818;stroke-width:0.5;" width="4" x="1122.6909" y="625.0083"/><rect fill="#F1F1F1" height="2" style="stroke:#181818;stroke-width:0.5;" width="4" x="1122.6909" y="629.0083"/><text fill="#000000" font-family="sans-serif" font-size="14" lengthAdjust="spacing" textLength="28" x="1034.31" y="651.5434">&#29615;&#22659;</text><text fill="#000000" font-family="sans-serif" font-size="14" lengthAdjust="spacing" textLength="85.3809" x="1034.31" y="668.0317">Environment</text></g><!--entity Skills--><g class="entity" data-qualified-name="......Skills" data-source-line="31" id="ent0011"><rect fill="#F1F1F1" height="62.9766" rx="2.5" ry="2.5" style="stroke:#181818;stroke-width:0.5;" width="82" x="476" y="618.0083"/><rect fill="#F1F1F1" height="10" style="stroke:#181818;stroke-width:0.5;" width="15" x="538" y="623.0083"/><rect fill="#F1F1F1" height="2" style="stroke:#181818;stroke-width:0.5;" width="4" x="536" y="625.0083"/><rect fill="#F1F1F1" height="2" style="stroke:#181818;stroke-width:0.5;" width="4" x="536" y="629.0083"/><text fill="#000000" font-family="sans-serif" font-size="14" lengthAdjust="spacing" textLength="42" x="491" y="651.5434">&#25216;&#33021;&#24211;</text><text fill="#000000" font-family="sans-serif" font-size="14" lengthAdjust="spacing" textLength="35" x="491" y="668.0317">Skills</text></g><!--entity Tools--><g class="entity" data-qualified-name="......Tools" data-source-line="32" id="ent0012"><rect fill="#F1F1F1" height="62.9766" rx="2.5" ry="2.5" style="stroke:#181818;stroke-width:0.5;" width="82" x="593" y="618.0083"/><rect fill="#F1F1F1" height="10" style="stroke:#181818;stroke-width:0.5;" width="15" x="655" y="623.0083"/><rect fill="#F1F1F1" height="2" style="stroke:#181818;stroke-width:0.5;" width="4" x="653" y="625.0083"/><rect fill="#F1F1F1" height="2" style="stroke:#181818;stroke-width:0.5;" width="4" x="653" y="629.0083"/><text fill="#000000" font-family="sans-serif" font-size="14" lengthAdjust="spacing" textLength="42" x="608" y="651.5434">&#24037;&#20855;&#38598;</text><text fill="#000000" font-family="sans-serif" font-size="14" lengthAdjust="spacing" textLength="37.2354" x="608" y="668.0317">Tools</text></g><!--entity Knowledge--><g class="entity" data-qualified-name="......Knowledge" data-source-line="33" id="ent0013"><rect fill="#F1F1F1" height="62.9766" rx="2.5" ry="2.5" style="stroke:#181818;stroke-width:0.5;" width="149.5527" x="291.22" y="618.0083"/><rect fill="#F1F1F1" height="10" style="stroke:#181818;stroke-width:0.5;" width="15" x="420.7727" y="623.0083"/><rect fill="#F1F1F1" height="2" style="stroke:#181818;stroke-width:0.5;" width="4" x="418.7727" y="625.0083"/><rect fill="#F1F1F1" height="2" style="stroke:#181818;stroke-width:0.5;" width="4" x="418.7727" y="629.0083"/><text fill="#000000" font-family="sans-serif" font-size="14" lengthAdjust="spacing" textLength="42" x="306.22" y="651.5434">&#30693;&#35782;&#24211;</text><text fill="#000000" font-family="sans-serif" font-size="14" lengthAdjust="spacing" textLength="109.5527" x="306.22" y="668.0317">Knowledge Base</text></g><!--entity STM--><g class="entity" data-qualified-name=".....STM" data-source-line="37" id="ent0015"><path d="M21.64,809.1183 C21.64,799.1183 99.0047,799.1183 99.0047,799.1183 C99.0047,799.1183 176.3695,799.1183 176.3695,809.1183 L176.3695,851.0948 C176.3695,861.0948 99.0047,861.0948 99.0047,861.0948 C99.0047,861.0948 21.64,861.0948 21.64,851.0948 L21.64,809.1183" fill="#F1F1F1" style="stroke:#181818;stroke-width:0.5;"/><path d="M21.64,809.1183 C21.64,819.1183 99.0047,819.1183 99.0047,819.1183 C99.0047,819.1183 176.3695,819.1183 176.3695,809.1183" fill="none" style="stroke:#181818;stroke-width:0.5;"/><text fill="#000000" font-family="sans-serif" font-size="14" lengthAdjust="spacing" textLength="56" x="31.64" y="836.6534">&#30701;&#26399;&#35760;&#24518;</text><text fill="#000000" font-family="sans-serif" font-size="14" lengthAdjust="spacing" textLength="134.7295" x="31.64" y="853.1417">Short-term Memory</text></g><!--entity LTM--><g class="entity" data-qualified-name=".....LTM" data-source-line="38" id="ent0016"><path d="M211.79,809.1183 C211.79,799.1183 287.9995,799.1183 287.9995,799.1183 C287.9995,799.1183 364.2089,799.1183 364.2089,809.1183 L364.2089,851.0948 C364.2089,861.0948 287.9995,861.0948 287.9995,861.0948 C287.9995,861.0948 211.79,861.0948 211.79,851.0948 L211.79,809.1183" fill="#F1F1F1" style="stroke:#181818;stroke-width:0.5;"/><path d="M211.79,809.1183 C211.79,819.1183 287.9995,819.1183 287.9995,819.1183 C287.9995,819.1183 364.2089,819.1183 364.2089,809.1183" fill="none" style="stroke:#181818;stroke-width:0.5;"/><text fill="#000000" font-family="sans-serif" font-size="14" lengthAdjust="spacing" textLength="56" x="221.79" y="836.6534">&#38271;&#26399;&#35760;&#24518;</text><text fill="#000000" font-family="sans-serif" font-size="14" lengthAdjust="spacing" textLength="132.4189" x="221.79" y="853.1417">Long-term Memory</text></g><g class="entity" data-qualified-name="GMN31" data-source-line="65" id="ent0032"><path d="M985.68,90.3583 L985.68,121.9783 L951.18,125.9783 L985.68,129.9783 L985.68,161.6005 A0,0 0 0 0 985.68,161.6005 L1096.3153,161.6005 A0,0 0 0 0 1096.3153,161.6005 L1096.3153,100.3583 L1086.3153,90.3583 L985.68,90.3583 A0,0 0 0 0 985.68,90.3583" fill="#FFFFFF" style="stroke:#000000;stroke-width:0.5;"/><path d="M1086.3153,90.3583 L1086.3153,100.3583 L1096.3153,100.3583 L1086.3153,90.3583" fill="#FFFFFF" style="stroke:#000000;stroke-width:0.5;"/><text fill="#000000" font-family="sans-serif" font-size="13" font-weight="bold" lengthAdjust="spacing" textLength="26" x="991.68" y="107.9266">&#32844;&#36131;</text><text fill="#000000" font-family="sans-serif" font-size="13" lengthAdjust="spacing" textLength="89.6353" x="991.68" y="123.2372">- &#25509;&#25910;&#29992;&#25143;&#25351;&#20196;</text><text fill="#000000" font-family="sans-serif" font-size="13" lengthAdjust="spacing" textLength="89.6353" x="991.68" y="138.5477">- &#35299;&#26512;&#29615;&#22659;&#20449;&#24687;</text><text fill="#000000" font-family="sans-serif" font-size="13" lengthAdjust="spacing" textLength="89.6353" x="991.68" y="153.8583">- &#35782;&#21035;&#20219;&#21153;&#30446;&#26631;</text></g><g class="entity" data-qualified-name="GMN34" data-source-line="72" id="ent0035"><path d="M982.8,238.5983 L982.8,293.1783 L829.59,297.1783 L982.8,301.1783 L982.8,355.7721 A0,0 0 0 0 982.8,355.7721 L1129.1916,355.7721 A0,0 0 0 0 1129.1916,355.7721 L1129.1916,248.5983 L1119.1916,238.5983 L982.8,238.5983 A0,0 0 0 0 982.8,238.5983" fill="#FFFFFF" style="stroke:#000000;stroke-width:0.5;"/><path d="M1119.1916,238.5983 L1119.1916,248.5983 L1129.1916,248.5983 L1119.1916,238.5983" fill="#FFFFFF" style="stroke:#000000;stroke-width:0.5;"/><text fill="#000000" font-family="sans-serif" font-size="13" font-weight="bold" lengthAdjust="spacing" textLength="26" x="988.8" y="256.1666">&#32844;&#36131;</text><text fill="#000000" font-family="sans-serif" font-size="13" lengthAdjust="spacing" textLength="63.6353" x="988.8" y="271.4772">- &#20219;&#21153;&#20998;&#35299;</text><text fill="#000000" font-family="sans-serif" font-size="13" lengthAdjust="spacing" textLength="63.6353" x="988.8" y="286.7877">- &#31574;&#30053;&#36873;&#25321;</text><text fill="#000000" font-family="sans-serif" font-size="13" lengthAdjust="spacing" textLength="63.6353" x="988.8" y="302.0983">- &#36164;&#28304;&#35843;&#24230;</text><text fill="#000000" font-family="sans-serif" font-size="13" font-weight="bold" lengthAdjust="spacing" textLength="26" x="988.8" y="317.4088">&#27169;&#24335;</text><text fill="#000000" font-family="sans-serif" font-size="13" lengthAdjust="spacing" textLength="47.5884" x="988.8" y="332.7194">- ReAct</text><text fill="#000000" font-family="sans-serif" font-size="13" lengthAdjust="spacing" textLength="125.3916" x="988.8" y="348.0299">- Plan-and-Execute</text></g><g class="entity" data-qualified-name="GMN37" data-source-line="82" id="ent0038"><path d="M985.68,432.7683 L985.68,464.3883 L951.34,468.3883 L985.68,472.3883 L985.68,504.0105 A0,0 0 0 0 985.68,504.0105 L1070.3153,504.0105 A0,0 0 0 0 1070.3153,504.0105 L1070.3153,442.7683 L1060.3153,432.7683 L985.68,432.7683 A0,0 0 0 0 985.68,432.7683" fill="#FFFFFF" style="stroke:#000000;stroke-width:0.5;"/><path d="M1060.3153,432.7683 L1060.3153,442.7683 L1070.3153,442.7683 L1060.3153,432.7683" fill="#FFFFFF" style="stroke:#000000;stroke-width:0.5;"/><text fill="#000000" font-family="sans-serif" font-size="13" font-weight="bold" lengthAdjust="spacing" textLength="26" x="991.68" y="450.3366">&#32844;&#36131;</text><text fill="#000000" font-family="sans-serif" font-size="13" lengthAdjust="spacing" textLength="63.6353" x="991.68" y="465.6472">- &#35843;&#29992;&#24037;&#20855;</text><text fill="#000000" font-family="sans-serif" font-size="13" lengthAdjust="spacing" textLength="63.6353" x="991.68" y="480.9577">- &#25191;&#34892;&#25805;&#20316;</text><text fill="#000000" font-family="sans-serif" font-size="13" lengthAdjust="spacing" textLength="63.6353" x="991.68" y="496.2683">- &#36820;&#22238;&#32467;&#26524;</text></g><g class="entity" data-qualified-name="GMN40" data-source-line="89" id="ent0041"><path d="M1311.18,613.8783 L1311.18,685.1205 L1460.8153,685.1205 L1460.8153,623.8783 L1450.8153,613.8783 L1311.18,613.8783" fill="#FFFFFF" style="stroke:#000000;stroke-width:0.5;"/><path d="M1450.8153,613.8783 L1450.8153,623.8783 L1460.8153,623.8783 L1450.8153,613.8783" fill="#FFFFFF" style="stroke:#000000;stroke-width:1;"/><text fill="#000000" font-family="sans-serif" font-size="13" font-weight="bold" lengthAdjust="spacing" textLength="26" x="1317.18" y="631.4466">&#32844;&#36131;</text><text fill="#000000" font-family="sans-serif" font-size="13" lengthAdjust="spacing" textLength="63.6353" x="1317.18" y="646.7572">- &#35780;&#20272;&#32467;&#26524;</text><text fill="#000000" font-family="sans-serif" font-size="13" lengthAdjust="spacing" textLength="63.6353" x="1317.18" y="662.0677">- &#35782;&#21035;&#38169;&#35823;</text><text fill="#000000" font-family="sans-serif" font-size="13" lengthAdjust="spacing" textLength="128.6353" x="1317.18" y="677.3783">- &#23384;&#20648;&#32463;&#39564;&#21040;&#38271;&#26399;&#35760;&#24518;</text></g><!--link Perception to Planning--><g class="link" data-entity-1="ent0003" data-entity-2="ent0004" data-link-type="dependency" data-source-line="42" id="lnk17"><path d="M874.17,157.6183 C853.46,188.0883 825.2219,229.6354 804.4319,260.2354" fill="none" id="Perception-to-Planning" style="stroke:#181818;stroke-width:1;"/><polygon fill="#181818" points="801.06,265.1983,809.4264,260.0018,803.8699,261.0625,802.8092,255.506,801.06,265.1983" style="stroke:#181818;stroke-width:1;"/><text fill="#000000" font-family="sans-serif" font-size="13" lengthAdjust="spacing" textLength="52" x="848.8" y="205.1666">&#24863;&#30693;&#20449;&#24687;</text></g><!--link Planning to Action--><g class="link" data-entity-1="ent0004" data-entity-2="ent0005" data-link-type="dependency" data-source-line="43" id="lnk18"><path d="M802.27,328.8283 C824.43,359.2983 854.7125,400.9548 876.9525,431.5548" fill="none" id="Planning-to-Action" style="stroke:#181818;stroke-width:1;"/><polygon fill="#181818" points="880.48,436.4083,878.4244,426.7763,877.5404,432.3637,871.953,431.4797,880.48,436.4083" style="stroke:#181818;stroke-width:1;"/><text fill="#000000" font-family="sans-serif" font-size="13" lengthAdjust="spacing" textLength="52" x="853.52" y="399.3366">&#25191;&#34892;&#35745;&#21010;</text></g><!--link Action to Reflection--><g class="link" data-entity-1="ent0005" data-entity-2="ent0006" data-link-type="dependency" data-source-line="44" id="lnk19"><path d="M871.47,500.0583 C863.05,510.0583 854.93,521.7683 850,534.0083 C839.2,560.8283 837.5553,588.0014 838.3253,611.7214" fill="none" id="Action-to-Reflection" style="stroke:#181818;stroke-width:1;"/><polygon fill="#181818" points="838.52,617.7183,842.2259,608.5932,838.3578,612.7209,834.2301,608.8528,838.52,617.7183" style="stroke:#181818;stroke-width:1;"/><text fill="#000000" font-family="sans-serif" font-size="13" lengthAdjust="spacing" textLength="52" x="851" y="547.5766">&#34892;&#21160;&#32467;&#26524;</text></g><!--link Reflection to Planning--><g class="link" data-entity-1="ent0006" data-entity-2="ent0004" data-link-type="dependency" data-source-line="45" id="lnk20"><path d="M825.08,617.6383 C811.25,589.0383 792.18,544.8683 784,504.0083 C771.76,442.8583 773.9235,375.4231 776.8135,334.8731" fill="none" id="Reflection-to-Planning" style="stroke:#181818;stroke-width:1;"/><polygon fill="#181818" points="777.24,328.8883,772.6103,337.5812,776.8846,333.8756,780.5901,338.1499,777.24,328.8883" style="stroke:#181818;stroke-width:1;"/><text fill="#000000" font-family="sans-serif" font-size="13" lengthAdjust="spacing" textLength="52" x="785" y="473.4566">&#20248;&#21270;&#31574;&#30053;</text></g><!--link Human to Perception--><g class="link" data-entity-1="ent0008" data-entity-2="ent0003" data-link-type="dependency" data-source-line="48" id="lnk21"><path d="M1234.54,617.7683 C1248.3,544.5083 1272.48,356.8583 1189,238.5983 C1129.01,153.6283 1066.98,193.5683 968,161.5983 C962.39,159.7883 962.2083,159.9223 956.5483,157.5923" fill="none" id="Human-to-Perception" style="stroke:#181818;stroke-width:1;"/><polygon fill="#181818" points="951,155.3083,957.7997,162.4331,955.6236,157.2116,960.8451,155.0354,951,155.3083" style="stroke:#181818;stroke-width:1;"/><text fill="#000000" font-family="sans-serif" font-size="13" lengthAdjust="spacing" textLength="58.8174" x="1245.99" y="399.3366">&#36755;&#20837;/&#25351;&#20196;</text></g><!--link Action to Human--><g class="link" data-entity-1="ent0005" data-entity-2="ent0008" data-link-type="dependency" data-source-line="49" id="lnk22"><path d="M951.44,496.6283 C956.95,499.2883 962.54,501.8183 968,504.0083 C1051.13,537.4883 1088.33,507.9783 1162,559.0083 C1183.58,573.9583 1197.8211,593.1148 1209.2811,612.6248" fill="none" id="Action-to-Human" style="stroke:#181818;stroke-width:1;"/><polygon fill="#181818" points="1212.32,617.7983,1211.2107,608.0121,1209.7876,613.487,1204.3127,612.0639,1212.32,617.7983" style="stroke:#181818;stroke-width:1;"/><text fill="#000000" font-family="sans-serif" font-size="13" lengthAdjust="spacing" textLength="58.8174" x="1150.12" y="547.5766">&#36755;&#20986;/&#21709;&#24212;</text></g><!--link Environment to Perception--><g class="link" data-entity-1="ent0009" data-entity-2="ent0003" data-link-type="dependency" data-source-line="50" id="lnk23"><path d="M1100.14,617.7083 C1140.3,545.0983 1227.04,360.1583 1147,238.5983 C1099.37,166.2683 1046.92,197.2683 968,161.5983 C962.5,159.1083 962.2291,159.0214 956.5391,156.3714" fill="none" id="Environment-to-Perception" style="stroke:#181818;stroke-width:1;"/><polygon fill="#181818" points="951.1,153.8383,957.5698,161.264,955.6325,155.9492,960.9473,154.0119,951.1,153.8383" style="stroke:#181818;stroke-width:1;"/><text fill="#000000" font-family="sans-serif" font-size="13" lengthAdjust="spacing" textLength="52" x="1179.53" y="399.3366">&#21453;&#39304;&#20449;&#21495;</text></g><!--link Action to Environment--><g class="link" data-entity-1="ent0005" data-entity-2="ent0009" data-link-type="dependency" data-source-line="51" id="lnk24"><path d="M933.77,500.1783 C966.56,532.9883 1013.9287,580.3844 1046.7887,613.2644" fill="none" id="Action-to-Environment" style="stroke:#181818;stroke-width:1;"/><polygon fill="#181818" points="1051.03,617.5083,1047.4973,608.3148,1047.4955,613.9717,1041.8387,613.97,1051.03,617.5083" style="stroke:#181818;stroke-width:1;"/><text fill="#000000" font-family="sans-serif" font-size="13" lengthAdjust="spacing" textLength="52" x="982.78" y="547.5766">&#25191;&#34892;&#25805;&#20316;</text></g><!--link Planning to Skills--><g class="link" data-entity-1="ent0004" data-entity-2="ent0011" data-link-type="dependency" data-source-line="54" id="lnk25"><path d="M754.45,328.7983 C714.71,376.8283 636.29,473.2683 575,559.0083 C561.33,578.1383 550.1506,595.2432 539.1206,612.7332" fill="none" id="Planning-to-Skills" style="stroke:#181818;stroke-width:1;"/><polygon fill="#181818" points="535.92,617.8083,544.1042,612.3294,538.5871,613.5791,537.3375,608.062,535.92,617.8083" style="stroke:#181818;stroke-width:1;"/><text fill="#000000" font-family="sans-serif" font-size="13" lengthAdjust="spacing" textLength="52" x="670.29" y="473.4566">&#35843;&#29992;&#25216;&#33021;</text></g><!--link Action to Tools--><g class="link" data-entity-1="ent0005" data-entity-2="ent0012" data-link-type="dependency" data-source-line="55" id="lnk26"><path d="M854.74,491.8283 C801.1,516.8583 721.13,554.4483 715,559.0083 C692.64,575.6583 675.4097,594.4743 660.3997,613.2243" fill="none" id="Action-to-Tools" style="stroke:#181818;stroke-width:1;"/><polygon fill="#181818" points="656.65,617.9083,665.3972,613.3821,659.7747,614.005,659.1519,608.3825,656.65,617.9083" style="stroke:#181818;stroke-width:1;"/><text fill="#000000" font-family="sans-serif" font-size="13" lengthAdjust="spacing" textLength="52" x="765.55" y="547.5766">&#25191;&#34892;&#24037;&#20855;</text></g><!--link Planning to Knowledge--><g class="link" data-entity-1="ent0004" data-entity-2="ent0013" data-link-type="dependency" data-source-line="56" id="lnk27"><path d="M730.61,321.9983 C682.99,346.2383 610.23,386.7083 555,432.7683 C486.36,490.0183 424.6264,568.2233 391.7264,612.7333" fill="none" id="Planning-to-Knowledge" style="stroke:#181818;stroke-width:1;"/><polygon fill="#181818" points="388.16,617.5583,396.7263,612.6984,391.132,613.5375,390.293,607.9432,388.16,617.5583" style="stroke:#181818;stroke-width:1;"/><text fill="#000000" font-family="sans-serif" font-size="13" lengthAdjust="spacing" textLength="52" x="556" y="473.4566">&#26816;&#32034;&#30693;&#35782;</text></g><!--link Planning to STM--><g class="link" data-entity-1="ent0004" data-entity-2="ent0015" data-link-type="dependency" data-source-line="59" id="lnk28"><path d="M724.4391,299.9982 C603.6891,306.6482 300.93,342.1783 174,534.0083 C118,618.6583 104.1902,736.3403 100.6002,792.8803" fill="none" id="Planning-STM" style="stroke:#181818;stroke-width:1;"/><polygon fill="#181818" points="730.43,299.6683,721.2237,296.1692,725.4376,299.9432,721.6636,304.1571,730.43,299.6683" style="stroke:#181818;stroke-width:1;"/><polygon fill="#181818" points="100.22,798.8683,104.7823,790.1398,100.5368,793.8783,96.7983,789.6329,100.22,798.8683" style="stroke:#181818;stroke-width:1;"/><text fill="#000000" font-family="sans-serif" font-size="13" lengthAdjust="spacing" textLength="97.8174" x="175" y="547.5766">&#35835;&#21462;/&#23384;&#20648;&#19978;&#19979;&#25991;</text></g><!--link Reflection to LTM--><g class="link" data-entity-1="ent0006" data-entity-2="ent0016" data-link-type="dependency" data-source-line="60" id="lnk29"><path d="M787.07,670.8283 C758.62,681.3583 723.05,694.2383 691,704.9883 C578.04,742.8783 451.5843,781.059 370.2443,805.079" fill="none" id="Reflection-to-LTM" style="stroke:#181818;stroke-width:1;"/><polygon fill="#181818" points="364.49,806.7783,374.2544,808.0656,369.2853,805.3622,371.9887,800.3931,364.49,806.7783" style="stroke:#181818;stroke-width:1;"/><text fill="#000000" font-family="sans-serif" font-size="13" lengthAdjust="spacing" textLength="52" x="659.56" y="728.6866">&#23384;&#20648;&#32463;&#39564;</text></g><!--link Planning to LTM--><g class="link" data-entity-1="ent0004" data-entity-2="ent0016" data-link-type="dependency" data-source-line="61" id="lnk30"><path d="M730.55,305.5683 C623.01,324.6683 369.93,386.8283 275,559.0083 C232.27,636.5083 257.6399,740.6205 274.9699,793.1405" fill="none" id="Planning-to-LTM" style="stroke:#181818;stroke-width:1;"/><polygon fill="#181818" points="276.85,798.8383,277.8284,789.0381,275.2832,794.0901,270.2313,791.545,276.85,798.8383" style="stroke:#181818;stroke-width:1;"/><text fill="#000000" font-family="sans-serif" font-size="13" lengthAdjust="spacing" textLength="78" x="291.2" y="547.5766">&#26816;&#32034;&#21382;&#21490;&#32463;&#39564;</text></g><!--link Reflection to GMN40--><g class="link" data-entity-1="ent0006" data-entity-2="ent0041" data-link-type="association" data-source-line="89" id="lnk42"><path d="M875.6,617.7383 C909.6,588.8683 964.41,548.2983 1020.5,531.5083 C1074.58,515.3283 1222.66,509.1783 1274.5,531.5083 C1313.07,548.1283 1344.51,585.3683 1364.06,613.5983" fill="none" id="Reflection-GMN40" style="stroke:#181818;stroke-width:1;stroke-dasharray:7,7;"/></g><g class="legend" data-source-line="95"><rect fill="none" height="96.4414" rx="7.5" ry="7.5" style="stroke:#000000;stroke-width:1;" width="152.0166" x="1289.7987" y="895.0983"/><text fill="#000000" font-family="sans-serif" font-size="14" font-weight="bold" lengthAdjust="spacing" textLength="28" x="1294.7987" y="915.6334">&#39068;&#33394;</text><text fill="#000000" font-family="sans-serif" font-size="14" font-weight="bold" lengthAdjust="spacing" textLength="56" x="1332.0272" y="915.6334">&#32452;&#20214;&#31867;&#22411;</text><text fill="#000000" filter="url(#b133spgandt3g10)" font-family="sans-serif" font-size="14" lengthAdjust="spacing" textLength="4.4297" x="1294.7987" y="932.1217">&#160;</text><text fill="#000000" font-family="sans-serif" font-size="14" lengthAdjust="spacing" textLength="100.543" x="1331.8426" y="932.1217">Agent &#26680;&#24515;&#32452;&#20214;</text><text fill="#000000" filter="url(#b133spgandt3g11)" font-family="sans-serif" font-size="14" lengthAdjust="spacing" textLength="4.4297" x="1294.7987" y="948.61">&#160;</text><text fill="#000000" font-family="sans-serif" font-size="14" lengthAdjust="spacing" textLength="56" x="1331.8426" y="948.61">&#22806;&#37096;&#20132;&#20114;</text><text fill="#000000" filter="url(#b133spgandt3g12)" font-family="sans-serif" font-size="14" lengthAdjust="spacing" textLength="4.4297" x="1294.7987" y="965.0983">&#160;</text><text fill="#000000" font-family="sans-serif" font-size="14" lengthAdjust="spacing" textLength="70" x="1331.8426" y="965.0983">&#24037;&#20855;&#19982;&#36164;&#28304;</text><text fill="#000000" filter="url(#b133spgandt3g13)" font-family="sans-serif" font-size="14" lengthAdjust="spacing" textLength="4.4297" x="1294.7987" y="981.5866">&#160;</text><text fill="#000000" font-family="sans-serif" font-size="14" lengthAdjust="spacing" textLength="56" x="1331.8426" y="981.5866">&#35760;&#24518;&#31995;&#32479;</text><line style="stroke:#000000;stroke-width:1;" x1="1294.7987" x2="1436.8153" y1="902.0983" y2="902.0983"/><line style="stroke:#000000;stroke-width:1;" x1="1294.7987" x2="1436.8153" y1="918.5866" y2="918.5866"/><line style="stroke:#000000;stroke-width:1;" x1="1294.7987" x2="1436.8153" y1="935.0748" y2="935.0748"/><line style="stroke:#000000;stroke-width:1;" x1="1294.7987" x2="1436.8153" y1="951.5631" y2="951.5631"/><line style="stroke:#000000;stroke-width:1;" x1="1294.7987" x2="1436.8153" y1="968.0514" y2="968.0514"/><line style="stroke:#000000;stroke-width:1;" x1="1294.7987" x2="1436.8153" y1="984.5397" y2="984.5397"/><line style="stroke:#000000;stroke-width:1;" x1="1294.7987" x2="1294.7987" y1="902.0983" y2="984.5397"/><line style="stroke:#000000;stroke-width:1;" x1="1327.4129" x2="1327.4129" y1="902.0983" y2="984.5397"/><line style="stroke:#000000;stroke-width:1;" x1="1436.8153" x2="1436.8153" y1="902.0983" y2="984.5397"/></g><?plantuml-src TLPTJnj757tVNp4Y3tsoYAA6XiYrX2DGfO9K9RoLFYpsnbYiPz6oD8rA9QYDCM1i6XkNrCJ6W8ER2fkc18ZNm9_PcLq_yHSw7sjxrYRootoSkVVSUy_UQoDgg0eOYoZGk6kbyDkc4x-shdDthGryS8LkuxXqWKi9LBoHfCNvA5oGTJa6PkNGV4JNbc3ucQPgEdWmCKv_0YAanHOqI8o-C5uJ-qinzP5m2pL30RzA00Jx3BsQYneAFTVqiABpircLWAJV9EahWEf_MPytseVxpiP7V729Mbd1w0A1oP5xxVhzB42s3WJ0Ww_7HX-EFxeFzzrIJ8PTtEE7pvvyy-G-tBIcgLtOnCH8S2Hu7snAYMdwwovmDFXuD3X2O-cG7MB40C-rRIOiys88zD6b0Vs84sMxNCMr2dhtvmpyGT53oe8HrU1FG5u4lIs5EYS9b7hJXQeoX54OuK1tms2LDDgiTM1ZeQurlgGGbDt6A-ywaEVAIrNfmNfRJq3ekD2ErwpciTLyGqFnP9I5OZMRzh-cdQ_XrEKCPFVC85jHW9rfeCFu31o7FqTr3SP8BXX0s7jTNbRHsgLrbN4-9N1pXteLwyFpjxb2b8sQkHduOZwggelC8b-oK9cDTZ4v0-bRVirMZ56vwZIIxFNtK7kbAc7YDoWlAWpMFVAmSkfdw3Pf_sVQPfbIycg1aWhBXZnBZ80XktoAzyly1I4uf-c6pr3q6E2FXXZNwIdFc_RkhV1cKeEHWIUJv0dxSBZAK7ADb0RTV209bdgQ0JvVeAiCy1HmgLct5RnAO9rp2kBAe92D4o8VfruXGfFSKmheQOA0kC1iCuTB-v9mq-VEQksXTC4-BTYxLSgLr57K4EbAQ7iNxVnXrq_HyVbTAuttCdQbZdVFy7OTVrh5XS_abZGiYGc8c-y5HtZSvD1QTHYdrotpM6JByHomtXn6kMtKp4k2oWPjaI-Y_Jv5SeEobw8fyL4dFJYtRLtlTq9Y-k82vO5vKykLICcSnUcdmUGgUc1QxDhcvhmcUieagACL-_oGozPb8Egndu6VKPYUeluR9ieMXj7f7lgzPbrjMbTRkB3UNxz9XkKWsyosFwIzNFWzPu4oIPJzwA9e5o_UM3TRJkES559Yeq2FHkOCeBtqDZB_RC1PJJldH_xXsG3P-m3EL77-WdSEjvpqs3avmgKTtZLSsR9ZyiMc_h5C4srMx68T7wnB2WopuIFr--trnK6lt09A9OaVTi2rsbxPm5j_Sq-ihAHogFcUcw0zivNjcdYka4go5VNaas7OD_wB4beYJBv4gTk51mbnYRWIO7aHzSOGjtbKBBcVtfSy20tyNY-DXDKwSstqyjdEltKQFC5Y-L7gJ6n8WbDLYT0DSqkUBN_BvpTP03xmo310fIsmJ2_zzA_5KtT01m0XG_Q1PJ0u9ZruFgW5lDX1F4W-gqMaTtXum7nU2s3n6o984XUFJleV?></g></svg>