<?plantuml 1.2026.2?><svg xmlns="http://www.w3.org/2000/svg" xmlns:xlink="http://www.w3.org/1999/xlink" contentStyleType="text/css" data-diagram-type="DESCRIPTION" height="1345px" preserveAspectRatio="none" style="width:1356px;height:1345px;background:#FEFEFE;" version="1.1" viewBox="0 0 1356 1345" width="1356px" zoomAndPan="magnify"><title>Harness Engineering &#24037;&#20316;&#27969;&#31243;&#22270;&#65288;CIVC &#26694;&#26550;&#65289;</title><defs><filter height="1" id="bcj1jewway9pl0" width="1" x="0" y="0"><feFlood flood-color="#E74C3C" result="flood"/><feComposite in="SourceGraphic" in2="flood" operator="over"/></filter><filter height="1" id="bcj1jewway9pl1" width="1" x="0" y="0"><feFlood flood-color="#3498DB" result="flood"/><feComposite in="SourceGraphic" in2="flood" operator="over"/></filter><filter height="1" id="bcj1jewway9pl2" width="1" x="0" y="0"><feFlood flood-color="#2ECC71" result="flood"/><feComposite in="SourceGraphic" in2="flood" operator="over"/></filter><filter height="1" id="bcj1jewway9pl3" width="1" x="0" y="0"><feFlood flood-color="#F39C12" result="flood"/><feComposite in="SourceGraphic" in2="flood" operator="over"/></filter></defs><g><rect fill="#FEFEFE" height="1345" style="stroke:none;stroke-width:1;" width="1356" x="0" y="0"/><g class="title" data-source-line="1"><text fill="#000000" font-family="sans-serif" font-size="14" font-weight="bold" lengthAdjust="spacing" textLength="319.2998" x="511.3501" y="23.5352">Harness Engineering &#24037;&#20316;&#27969;&#31243;&#22270;&#65288;CIVC &#26694;&#26550;&#65289;</text></g><!--cluster Constrain - ???--><g class="cluster" data-qualified-name="Constrain - ..." data-source-line="19" id="ent0002"><rect fill="#E74C3C" height="164.98" rx="2.5" ry="2.5" style="stroke:#181818;stroke-width:1;" width="449" x="363" y="161.7283"/><text fill="#000000" font-family="sans-serif" font-size="14" font-style="italic" lengthAdjust="spacing" textLength="116.874" x="529.063" y="177.2634">&#171;ConstrainColor&#187;</text><text fill="#000000" font-family="sans-serif" font-size="14" font-weight="bold" lengthAdjust="spacing" textLength="130.2109" x="522.3945" y="193.7517">Constrain - &#32422;&#26463;&#23618;</text></g><!--cluster Inform - ???--><g class="cluster" data-qualified-name="Inform - ..." data-source-line="25" id="ent0006"><rect fill="#3498DB" height="164.98" rx="2.5" ry="2.5" style="stroke:#181818;stroke-width:1;" width="514" x="836" y="161.7283"/><text fill="#000000" font-family="sans-serif" font-size="14" font-style="italic" lengthAdjust="spacing" textLength="96.5986" x="1044.7007" y="177.2634">&#171;InformColor&#187;</text><text fill="#000000" font-family="sans-serif" font-size="14" font-weight="bold" lengthAdjust="spacing" textLength="108.6914" x="1038.6543" y="193.7517">Inform - &#21578;&#30693;&#23618;</text></g><!--cluster Verify - ???--><g class="cluster" data-qualified-name="Verify - ..." data-source-line="31" id="ent0010"><rect fill="#2ECC71" height="164.97" rx="2.5" ry="2.5" style="stroke:#181818;stroke-width:1;" width="492" x="7" y="541.1983"/><text fill="#000000" font-family="sans-serif" font-size="14" font-style="italic" lengthAdjust="spacing" textLength="90.5215" x="207.7393" y="556.7334">&#171;VerifyColor&#187;</text><text fill="#000000" font-family="sans-serif" font-size="14" font-weight="bold" lengthAdjust="spacing" textLength="103.0381" x="201.481" y="573.2217">Verify - &#39564;&#35777;&#23618;</text></g><!--cluster Correct - ???--><g class="cluster" data-qualified-name="Correct - ..." data-source-line="37" id="ent0014"><rect fill="#F39C12" height="456.72" rx="2.5" ry="2.5" style="stroke:#181818;stroke-width:1;" width="174" x="357" y="755.1683"/><text fill="#000000" font-family="sans-serif" font-size="14" font-style="italic" lengthAdjust="spacing" textLength="101.2813" x="393.3594" y="770.7034">&#171;CorrectColor&#187;</text><text fill="#000000" font-family="sans-serif" font-size="14" font-weight="bold" lengthAdjust="spacing" textLength="113.1416" x="387.4292" y="787.1917">Correct - &#32416;&#27491;&#23618;</text></g><!--cluster AI Agent--><g class="cluster" data-qualified-name="AI Agent" data-source-line="43" id="ent0018"><path d="M764.5,375.7083 L827.6797,375.7083 A3.75,3.75 0 0 1 830.1797,378.2083 L837.1797,398.1966 L891.5,398.1966 A2.5,2.5 0 0 1 894,400.6966 L894,489.6983 A2.5,2.5 0 0 1 891.5,492.1983 L764.5,492.1983 A2.5,2.5 0 0 1 762,489.6983 L762,378.2083 A2.5,2.5 0 0 1 764.5,375.7083" fill="none" style="stroke:#000000;stroke-width:1.5;"/><line style="stroke:#000000;stroke-width:1.5;" x1="762" x2="837.1797" y1="398.1966" y2="398.1966"/><text fill="#000000" font-family="sans-serif" font-size="14" font-weight="bold" lengthAdjust="spacing" textLength="62.1797" x="766" y="391.2434">AI Agent</text></g><!--cluster ????--><g class="cluster" data-qualified-name="...." data-source-line="47" id="ent0020"><path d="M557.5,573.1983 L614.5,573.1983 A3.75,3.75 0 0 1 617,575.6983 L624,595.6866 L913.5,595.6866 A2.5,2.5 0 0 1 916,598.1866 L916,909.3983 A2.5,2.5 0 0 1 913.5,911.8983 L557.5,911.8983 A2.5,2.5 0 0 1 555,909.3983 L555,575.6983 A2.5,2.5 0 0 1 557.5,573.1983" fill="none" style="stroke:#000000;stroke-width:1.5;"/><line style="stroke:#000000;stroke-width:1.5;" x1="555" x2="624" y1="595.6866" y2="595.6866"/><text fill="#000000" font-family="sans-serif" font-size="14" font-weight="bold" lengthAdjust="spacing" textLength="56" x="559" y="588.7334">&#36755;&#20986;&#20135;&#29289;</text></g><!--entity Permission--><g class="entity" data-qualified-name="Constrain - ....Permission" data-source-line="20" id="ent0003"><rect fill="#F1F1F1" height="62.9766" rx="2.5" ry="2.5" style="stroke:#181818;stroke-width:0.5;" width="113.9922" x="379" y="247.7283"/><rect fill="#F1F1F1" height="10" style="stroke:#181818;stroke-width:0.5;" width="15" x="472.9922" y="252.7283"/><rect fill="#F1F1F1" height="2" style="stroke:#181818;stroke-width:0.5;" width="4" x="470.9922" y="254.7283"/><rect fill="#F1F1F1" height="2" style="stroke:#181818;stroke-width:0.5;" width="4" x="470.9922" y="258.7283"/><text fill="#000000" font-family="sans-serif" font-size="14" lengthAdjust="spacing" textLength="56" x="394" y="281.2634">&#26435;&#38480;&#25511;&#21046;</text><text fill="#000000" font-family="sans-serif" font-size="14" lengthAdjust="spacing" textLength="73.9922" x="394" y="297.7517">Permission</text></g><!--entity FileScope--><g class="entity" data-qualified-name="Constrain - ....FileScope" data-source-line="21" id="ent0004"><rect fill="#F1F1F1" height="62.9766" rx="2.5" ry="2.5" style="stroke:#181818;stroke-width:0.5;" width="107.751" x="528.12" y="247.7283"/><rect fill="#F1F1F1" height="10" style="stroke:#181818;stroke-width:0.5;" width="15" x="615.871" y="252.7283"/><rect fill="#F1F1F1" height="2" style="stroke:#181818;stroke-width:0.5;" width="4" x="613.871" y="254.7283"/><rect fill="#F1F1F1" height="2" style="stroke:#181818;stroke-width:0.5;" width="4" x="613.871" y="258.7283"/><text fill="#000000" font-family="sans-serif" font-size="14" lengthAdjust="spacing" textLength="56" x="543.12" y="281.2634">&#25991;&#20214;&#33539;&#22260;</text><text fill="#000000" font-family="sans-serif" font-size="14" lengthAdjust="spacing" textLength="67.751" x="543.12" y="297.7517">File Scope</text></g><!--entity AllowedOps--><g class="entity" data-qualified-name="Constrain - ....AllowedOps" data-source-line="22" id="ent0005"><rect fill="#F1F1F1" height="62.9766" rx="2.5" ry="2.5" style="stroke:#181818;stroke-width:0.5;" width="125.0049" x="670.5" y="247.7283"/><rect fill="#F1F1F1" height="10" style="stroke:#181818;stroke-width:0.5;" width="15" x="775.5049" y="252.7283"/><rect fill="#F1F1F1" height="2" style="stroke:#181818;stroke-width:0.5;" width="4" x="773.5049" y="254.7283"/><rect fill="#F1F1F1" height="2" style="stroke:#181818;stroke-width:0.5;" width="4" x="773.5049" y="258.7283"/><text fill="#000000" font-family="sans-serif" font-size="14" lengthAdjust="spacing" textLength="70" x="685.5" y="281.2634">&#25805;&#20316;&#30333;&#21517;&#21333;</text><text fill="#000000" font-family="sans-serif" font-size="14" lengthAdjust="spacing" textLength="85.0049" x="685.5" y="297.7517">Allowed Ops</text></g><!--entity Context--><g class="entity" data-qualified-name="Inform - ....Context" data-source-line="26" id="ent0007"><rect fill="#F1F1F1" height="62.9766" rx="2.5" ry="2.5" style="stroke:#181818;stroke-width:0.5;" width="144.7949" x="851.6" y="247.7283"/><rect fill="#F1F1F1" height="10" style="stroke:#181818;stroke-width:0.5;" width="15" x="976.3949" y="252.7283"/><rect fill="#F1F1F1" height="2" style="stroke:#181818;stroke-width:0.5;" width="4" x="974.3949" y="254.7283"/><rect fill="#F1F1F1" height="2" style="stroke:#181818;stroke-width:0.5;" width="4" x="974.3949" y="258.7283"/><text fill="#000000" font-family="sans-serif" font-size="14" lengthAdjust="spacing" textLength="70" x="866.6" y="281.2634">&#39033;&#30446;&#19978;&#19979;&#25991;</text><text fill="#000000" font-family="sans-serif" font-size="14" lengthAdjust="spacing" textLength="104.7949" x="866.6" y="297.7517">Project Context</text></g><!--entity TaskSpec--><g class="entity" data-qualified-name="Inform - ....TaskSpec" data-source-line="27" id="ent0008"><rect fill="#F1F1F1" height="62.9766" rx="2.5" ry="2.5" style="stroke:#181818;stroke-width:0.5;" width="107.6553" x="1031.17" y="247.7283"/><rect fill="#F1F1F1" height="10" style="stroke:#181818;stroke-width:0.5;" width="15" x="1118.8253" y="252.7283"/><rect fill="#F1F1F1" height="2" style="stroke:#181818;stroke-width:0.5;" width="4" x="1116.8253" y="254.7283"/><rect fill="#F1F1F1" height="2" style="stroke:#181818;stroke-width:0.5;" width="4" x="1116.8253" y="258.7283"/><text fill="#000000" font-family="sans-serif" font-size="14" lengthAdjust="spacing" textLength="56" x="1046.17" y="281.2634">&#20219;&#21153;&#35828;&#26126;</text><text fill="#000000" font-family="sans-serif" font-size="14" lengthAdjust="spacing" textLength="67.6553" x="1046.17" y="297.7517">Task Spec</text></g><!--entity Standards--><g class="entity" data-qualified-name="Inform - ....Standards" data-source-line="28" id="ent0009"><rect fill="#F1F1F1" height="62.9766" rx="2.5" ry="2.5" style="stroke:#181818;stroke-width:0.5;" width="160.4082" x="1173.8" y="247.7283"/><rect fill="#F1F1F1" height="10" style="stroke:#181818;stroke-width:0.5;" width="15" x="1314.2082" y="252.7283"/><rect fill="#F1F1F1" height="2" style="stroke:#181818;stroke-width:0.5;" width="4" x="1312.2082" y="254.7283"/><rect fill="#F1F1F1" height="2" style="stroke:#181818;stroke-width:0.5;" width="4" x="1312.2082" y="258.7283"/><text fill="#000000" font-family="sans-serif" font-size="14" lengthAdjust="spacing" textLength="56" x="1188.8" y="281.2634">&#32534;&#30721;&#35268;&#33539;</text><text fill="#000000" font-family="sans-serif" font-size="14" lengthAdjust="spacing" textLength="120.4082" x="1188.8" y="297.7517">Coding Standards</text></g><!--entity Tests--><g class="entity" data-qualified-name="Verify - ....Tests" data-source-line="32" id="ent0011"><rect fill="#F1F1F1" height="62.9766" rx="2.5" ry="2.5" style="stroke:#181818;stroke-width:0.5;" width="155.4248" x="23.29" y="627.1983"/><rect fill="#F1F1F1" height="10" style="stroke:#181818;stroke-width:0.5;" width="15" x="158.7148" y="632.1983"/><rect fill="#F1F1F1" height="2" style="stroke:#181818;stroke-width:0.5;" width="4" x="156.7148" y="634.1983"/><rect fill="#F1F1F1" height="2" style="stroke:#181818;stroke-width:0.5;" width="4" x="156.7148" y="638.1983"/><text fill="#000000" font-family="sans-serif" font-size="14" lengthAdjust="spacing" textLength="70" x="38.29" y="660.7334">&#33258;&#21160;&#21270;&#27979;&#35797;</text><text fill="#000000" font-family="sans-serif" font-size="14" lengthAdjust="spacing" textLength="115.4248" x="38.29" y="677.2217">Automated Tests</text></g><!--entity Lint--><g class="entity" data-qualified-name="Verify - ....Lint" data-source-line="33" id="ent0012"><rect fill="#F1F1F1" height="62.9766" rx="2.5" ry="2.5" style="stroke:#181818;stroke-width:0.5;" width="105.5566" x="213.22" y="627.1983"/><rect fill="#F1F1F1" height="10" style="stroke:#181818;stroke-width:0.5;" width="15" x="298.7766" y="632.1983"/><rect fill="#F1F1F1" height="2" style="stroke:#181818;stroke-width:0.5;" width="4" x="296.7766" y="634.1983"/><rect fill="#F1F1F1" height="2" style="stroke:#181818;stroke-width:0.5;" width="4" x="296.7766" y="638.1983"/><text fill="#000000" font-family="sans-serif" font-size="14" lengthAdjust="spacing" textLength="56" x="228.22" y="660.7334">&#20195;&#30721;&#26816;&#26597;</text><text fill="#000000" font-family="sans-serif" font-size="14" lengthAdjust="spacing" textLength="65.5566" x="228.22" y="677.2217">Lint/Type</text></g><!--entity Security--><g class="entity" data-qualified-name="Verify - ....Security" data-source-line="34" id="ent0013"><rect fill="#F1F1F1" height="62.9766" rx="2.5" ry="2.5" style="stroke:#181818;stroke-width:0.5;" width="129.0859" x="353.46" y="627.1983"/><rect fill="#F1F1F1" height="10" style="stroke:#181818;stroke-width:0.5;" width="15" x="462.5459" y="632.1983"/><rect fill="#F1F1F1" height="2" style="stroke:#181818;stroke-width:0.5;" width="4" x="460.5459" y="634.1983"/><rect fill="#F1F1F1" height="2" style="stroke:#181818;stroke-width:0.5;" width="4" x="460.5459" y="638.1983"/><text fill="#000000" font-family="sans-serif" font-size="14" lengthAdjust="spacing" textLength="56" x="368.46" y="660.7334">&#23433;&#20840;&#25195;&#25551;</text><text fill="#000000" font-family="sans-serif" font-size="14" lengthAdjust="spacing" textLength="89.0859" x="368.46" y="677.2217">Security Scan</text></g><!--entity Classifier--><g class="entity" data-qualified-name="Correct - ....Classifier" data-source-line="38" id="ent0015"><rect fill="#F1F1F1" height="62.9766" rx="2.5" ry="2.5" style="stroke:#181818;stroke-width:0.5;" width="140.3105" x="373.84" y="841.1683"/><rect fill="#F1F1F1" height="10" style="stroke:#181818;stroke-width:0.5;" width="15" x="494.1505" y="846.1683"/><rect fill="#F1F1F1" height="2" style="stroke:#181818;stroke-width:0.5;" width="4" x="492.1505" y="848.1683"/><rect fill="#F1F1F1" height="2" style="stroke:#181818;stroke-width:0.5;" width="4" x="492.1505" y="852.1683"/><text fill="#000000" font-family="sans-serif" font-size="14" lengthAdjust="spacing" textLength="56" x="388.84" y="874.7034">&#38169;&#35823;&#20998;&#31867;</text><text fill="#000000" font-family="sans-serif" font-size="14" lengthAdjust="spacing" textLength="100.3105" x="388.84" y="891.1917">Error Classifier</text></g><!--entity Feedback--><g class="entity" data-qualified-name="Correct - ....Feedback" data-source-line="39" id="ent0016"><rect fill="#F1F1F1" height="62.9766" rx="2.5" ry="2.5" style="stroke:#181818;stroke-width:0.5;" width="141.7188" x="373.14" y="992.9383"/><rect fill="#F1F1F1" height="10" style="stroke:#181818;stroke-width:0.5;" width="15" x="494.8588" y="997.9383"/><rect fill="#F1F1F1" height="2" style="stroke:#181818;stroke-width:0.5;" width="4" x="492.8588" y="999.9383"/><rect fill="#F1F1F1" height="2" style="stroke:#181818;stroke-width:0.5;" width="4" x="492.8588" y="1003.9383"/><text fill="#000000" font-family="sans-serif" font-size="14" lengthAdjust="spacing" textLength="56" x="388.14" y="1026.4734">&#21453;&#39304;&#24490;&#29615;</text><text fill="#000000" font-family="sans-serif" font-size="14" lengthAdjust="spacing" textLength="101.7188" x="388.14" y="1042.9617">Feedback Loop</text></g><!--entity Retry--><g class="entity" data-qualified-name="Correct - ....Retry" data-source-line="40" id="ent0017"><rect fill="#F1F1F1" height="62.9766" rx="2.5" ry="2.5" style="stroke:#181818;stroke-width:0.5;" width="115.373" x="395.31" y="1132.9083"/><rect fill="#F1F1F1" height="10" style="stroke:#181818;stroke-width:0.5;" width="15" x="490.683" y="1137.9083"/><rect fill="#F1F1F1" height="2" style="stroke:#181818;stroke-width:0.5;" width="4" x="488.683" y="1139.9083"/><rect fill="#F1F1F1" height="2" style="stroke:#181818;stroke-width:0.5;" width="4" x="488.683" y="1143.9083"/><text fill="#000000" font-family="sans-serif" font-size="14" lengthAdjust="spacing" textLength="56" x="410.31" y="1166.4434">&#37325;&#35797;&#26426;&#21046;</text><text fill="#000000" font-family="sans-serif" font-size="14" lengthAdjust="spacing" textLength="75.373" x="410.31" y="1182.9317">Retry Logic</text></g><!--entity Agent--><g class="entity" data-qualified-name="AI Agent.Agent" data-source-line="44" id="ent0019"><rect fill="#F1F1F1" height="46.4883" rx="2.5" ry="2.5" style="stroke:#181818;stroke-width:0.5;" width="100.1221" x="777.94" y="429.7083"/><rect fill="#F1F1F1" height="10" style="stroke:#181818;stroke-width:0.5;" width="15" x="858.0621" y="434.7083"/><rect fill="#F1F1F1" height="2" style="stroke:#181818;stroke-width:0.5;" width="4" x="856.0621" y="436.7083"/><rect fill="#F1F1F1" height="2" style="stroke:#181818;stroke-width:0.5;" width="4" x="856.0621" y="440.7083"/><text fill="#000000" font-family="sans-serif" font-size="14" lengthAdjust="spacing" textLength="60.1221" x="792.94" y="463.2434">AI &#26234;&#33021;&#20307;</text></g><!--entity Code--><g class="entity" data-qualified-name=".....Code" data-source-line="48" id="ent0021"><rect fill="#F1F1F1" height="62.9766" rx="2.5" ry="2.5" style="stroke:#181818;stroke-width:0.5;" width="149.04" x="571.48" y="627.1983"/><rect fill="#F1F1F1" height="10" style="stroke:#181818;stroke-width:0.5;" width="15" x="700.52" y="632.1983"/><rect fill="#F1F1F1" height="2" style="stroke:#181818;stroke-width:0.5;" width="4" x="698.52" y="634.1983"/><rect fill="#F1F1F1" height="2" style="stroke:#181818;stroke-width:0.5;" width="4" x="698.52" y="638.1983"/><text fill="#000000" font-family="sans-serif" font-size="14" lengthAdjust="spacing" textLength="56" x="586.48" y="660.7334">&#29983;&#25104;&#20195;&#30721;</text><text fill="#000000" font-family="sans-serif" font-size="14" lengthAdjust="spacing" textLength="109.04" x="586.48" y="677.2217">Generated Code</text></g><!--entity PR--><g class="entity" data-qualified-name=".....PR" data-source-line="49" id="ent0022"><rect fill="#F1F1F1" height="46.4883" rx="2.5" ry="2.5" style="stroke:#181818;stroke-width:0.5;" width="84.8438" x="570.58" y="849.4183"/><rect fill="#F1F1F1" height="10" style="stroke:#181818;stroke-width:0.5;" width="15" x="635.4238" y="854.4183"/><rect fill="#F1F1F1" height="2" style="stroke:#181818;stroke-width:0.5;" width="4" x="633.4238" y="856.4183"/><rect fill="#F1F1F1" height="2" style="stroke:#181818;stroke-width:0.5;" width="4" x="633.4238" y="860.4183"/><text fill="#000000" font-family="sans-serif" font-size="14" lengthAdjust="spacing" textLength="44.8438" x="585.58" y="882.9534">PR/MR</text></g><!--entity Docs--><g class="entity" data-qualified-name=".....Docs" data-source-line="50" id="ent0023"><rect fill="#F1F1F1" height="62.9766" rx="2.5" ry="2.5" style="stroke:#181818;stroke-width:0.5;" width="144.043" x="755.98" y="627.1983"/><rect fill="#F1F1F1" height="10" style="stroke:#181818;stroke-width:0.5;" width="15" x="880.023" y="632.1983"/><rect fill="#F1F1F1" height="2" style="stroke:#181818;stroke-width:0.5;" width="4" x="878.023" y="634.1983"/><rect fill="#F1F1F1" height="2" style="stroke:#181818;stroke-width:0.5;" width="4" x="878.023" y="638.1983"/><text fill="#000000" font-family="sans-serif" font-size="14" lengthAdjust="spacing" textLength="28" x="770.98" y="660.7334">&#25991;&#26723;</text><text fill="#000000" font-family="sans-serif" font-size="14" lengthAdjust="spacing" textLength="104.043" x="770.98" y="677.2217">Documentation</text></g><g class="entity" data-qualified-name="GMN45" data-source-line="90" id="ent0046"><path d="M380.68,43.4883 L380.68,114.7305 A0,0 0 0 0 380.68,114.7305 L432,114.7305 L436,247.5083 L440,114.7305 L491.3153,114.7305 A0,0 0 0 0 491.3153,114.7305 L491.3153,53.4883 L481.3153,43.4883 L380.68,43.4883 A0,0 0 0 0 380.68,43.4883" fill="#FFFFFF" style="stroke:#000000;stroke-width:0.5;"/><path d="M481.3153,43.4883 L481.3153,53.4883 L491.3153,53.4883 L481.3153,43.4883" fill="#FFFFFF" style="stroke:#000000;stroke-width:0.5;"/><text fill="#000000" font-family="sans-serif" font-size="13" font-weight="bold" lengthAdjust="spacing" textLength="52" x="386.68" y="61.0566">&#32422;&#26463;&#31034;&#20363;</text><text fill="#000000" font-family="sans-serif" font-size="13" lengthAdjust="spacing" textLength="89.6353" x="386.68" y="76.3672">- &#31105;&#27490;&#21024;&#38500;&#25991;&#20214;</text><text fill="#000000" font-family="sans-serif" font-size="13" lengthAdjust="spacing" textLength="89.6353" x="386.68" y="91.6777">- &#31105;&#27490;&#35775;&#38382;&#23494;&#38053;</text><text fill="#000000" font-family="sans-serif" font-size="13" lengthAdjust="spacing" textLength="89.6353" x="386.68" y="106.9883">- &#31105;&#27490;&#29983;&#20135;&#37096;&#32626;</text></g><g class="entity" data-qualified-name="GMN48" data-source-line="97" id="ent0049"><path d="M875.18,43.4883 L875.18,114.7305 A0,0 0 0 0 875.18,114.7305 L920,114.7305 L924,247.5083 L928,114.7305 L972.8153,114.7305 A0,0 0 0 0 972.8153,114.7305 L972.8153,53.4883 L962.8153,43.4883 L875.18,43.4883 A0,0 0 0 0 875.18,43.4883" fill="#FFFFFF" style="stroke:#000000;stroke-width:0.5;"/><path d="M962.8153,43.4883 L962.8153,53.4883 L972.8153,53.4883 L962.8153,43.4883" fill="#FFFFFF" style="stroke:#000000;stroke-width:0.5;"/><text fill="#000000" font-family="sans-serif" font-size="13" font-weight="bold" lengthAdjust="spacing" textLength="65" x="881.18" y="61.0566">&#19978;&#19979;&#25991;&#20869;&#23481;</text><text fill="#000000" font-family="sans-serif" font-size="13" lengthAdjust="spacing" textLength="76.6353" x="881.18" y="76.3672">- &#25216;&#26415;&#26632;&#20449;&#24687;</text><text fill="#000000" font-family="sans-serif" font-size="13" lengthAdjust="spacing" textLength="63.6353" x="881.18" y="91.6777">- &#19994;&#21153;&#35268;&#21017;</text><text fill="#000000" font-family="sans-serif" font-size="13" lengthAdjust="spacing" textLength="63.6353" x="881.18" y="106.9883">- &#26550;&#26500;&#25991;&#26723;</text></g><g class="entity" data-qualified-name="GMN51" data-source-line="104" id="ent0052"><path d="M932.07,837.0383 L932.07,908.2805 L1089.9318,908.2805 L1089.9318,847.0383 L1079.9318,837.0383 L932.07,837.0383" fill="#FFFFFF" style="stroke:#000000;stroke-width:0.5;"/><path d="M1079.9318,837.0383 L1079.9318,847.0383 L1089.9318,847.0383 L1079.9318,837.0383" fill="#FFFFFF" style="stroke:#000000;stroke-width:1;"/><text fill="#000000" font-family="sans-serif" font-size="13" font-weight="bold" lengthAdjust="spacing" textLength="52" x="938.07" y="854.6066">&#38169;&#35823;&#20998;&#31867;</text><text fill="#000000" font-family="sans-serif" font-size="13" lengthAdjust="spacing" textLength="136.8618" x="938.07" y="869.9172">- &#35821;&#27861;&#38169;&#35823; &#8594; &#30452;&#25509;&#20462;&#22797;</text><text fill="#000000" font-family="sans-serif" font-size="13" lengthAdjust="spacing" textLength="136.8618" x="938.07" y="885.2277">- &#36923;&#36753;&#38169;&#35823; &#8594; &#25552;&#20379;&#27979;&#35797;</text><text fill="#000000" font-family="sans-serif" font-size="13" lengthAdjust="spacing" textLength="136.8618" x="938.07" y="900.5383">- &#35774;&#35745;&#38169;&#35823; &#8594; &#20154;&#24037;&#20171;&#20837;</text></g><g class="entity" data-qualified-name="GMN54" data-source-line="111" id="ent0055"><path d="M19.83,829.3783 L19.83,915.931 A0,0 0 0 0 19.83,915.931 L182.1669,915.931 A0,0 0 0 0 182.1669,915.931 L182.1669,839.3783 L172.1669,829.3783 L105,829.3783 L101,690.5083 L97,829.3783 L19.83,829.3783 A0,0 0 0 0 19.83,829.3783" fill="#FFFFFF" style="stroke:#000000;stroke-width:0.5;"/><path d="M172.1669,829.3783 L172.1669,839.3783 L182.1669,839.3783 L172.1669,829.3783" fill="#FFFFFF" style="stroke:#000000;stroke-width:0.5;"/><text fill="#000000" font-family="sans-serif" font-size="13" font-weight="bold" lengthAdjust="spacing" textLength="65" x="25.83" y="846.9466">&#39564;&#35777;&#24037;&#20855;&#38142;</text><text fill="#000000" font-family="sans-serif" font-size="13" lengthAdjust="spacing" textLength="113.7373" x="25.83" y="862.2572">- rspec/jest (&#27979;&#35797;)</text><text fill="#000000" font-family="sans-serif" font-size="13" lengthAdjust="spacing" textLength="141.3369" x="25.83" y="877.5677">- rubocop/eslint (Lint)</text><text fill="#000000" font-family="sans-serif" font-size="13" lengthAdjust="spacing" textLength="94.3516" x="25.83" y="892.8783">- tsc (&#31867;&#22411;&#26816;&#26597;)</text><text fill="#000000" font-family="sans-serif" font-size="13" lengthAdjust="spacing" textLength="113.1089" x="25.83" y="908.1888">- brakeman (&#23433;&#20840;)</text></g><g class="entity" data-qualified-name="ArrowNote" data-source-line="119" id="ent0057"><path d="M1008.22,58.7983 L1008.22,99.4194 L1151.7805,99.4194 L1151.7805,68.7983 L1141.7805,58.7983 L1008.22,58.7983" fill="#FFFFFF" style="stroke:#000000;stroke-width:0.5;"/><path d="M1141.7805,58.7983 L1141.7805,68.7983 L1151.7805,68.7983 L1141.7805,58.7983" fill="#FFFFFF" style="stroke:#000000;stroke-width:1;"/><text fill="#2ECC71" font-family="sans-serif" font-size="13" font-weight="bold" lengthAdjust="spacing" textLength="52" x="1014.22" y="76.3666">&#32511;&#33394;&#31661;&#22836;</text><text fill="#000000" font-family="sans-serif" font-size="13" lengthAdjust="spacing" textLength="66.4473" x="1070.3333" y="76.3666">= &#39564;&#35777;&#36890;&#36807;</text><text fill="#E74C3C" font-family="sans-serif" font-size="13" font-weight="bold" lengthAdjust="spacing" textLength="52" x="1014.22" y="91.6772">&#32418;&#33394;&#31661;&#22836;</text><text fill="#000000" font-family="sans-serif" font-size="13" lengthAdjust="spacing" textLength="66.4473" x="1070.3333" y="91.6772">= &#39564;&#35777;&#22833;&#36133;</text></g><!--link Permission to Agent--><g class="link" data-entity-1="ent0003" data-entity-2="ent0019" data-link-type="dependency" data-source-line="54" id="lnk24"><path d="M474.37,311.1883 C485.75,319.4983 498.51,328.0283 511,334.7083 C600.38,382.5283 707.7222,417.5107 771.8322,436.3007" fill="none" id="Permission-to-Agent" style="stroke:#2C3E50;stroke-width:1;"/><polygon fill="#2C3E50" points="777.59,437.9883,770.0783,431.6184,772.7918,436.582,767.8283,439.2955,777.59,437.9883" style="stroke:#2C3E50;stroke-width:1;"/><text fill="#000000" font-family="sans-serif" font-size="13" lengthAdjust="spacing" textLength="52" x="561.52" y="356.2766">&#32422;&#26463;&#26435;&#38480;</text></g><!--link FileScope to Agent--><g class="link" data-entity-1="ent0004" data-entity-2="ent0019" data-link-type="dependency" data-source-line="55" id="lnk25"><path d="M621.09,310.9383 C631.38,318.8183 642.52,327.1883 653,334.7083 C700.54,368.8183 751.9777,402.8209 787.6477,425.9809" fill="none" id="FileScope-to-Agent" style="stroke:#2C3E50;stroke-width:1;"/><polygon fill="#2C3E50" points="792.68,429.2483,787.3098,420.9923,788.4864,426.5254,782.9533,427.7021,792.68,429.2483" style="stroke:#2C3E50;stroke-width:1;"/><text fill="#000000" font-family="sans-serif" font-size="13" lengthAdjust="spacing" textLength="52" x="686.96" y="356.2766">&#38480;&#23450;&#33539;&#22260;</text></g><!--link AllowedOps to Agent--><g class="link" data-entity-1="ent0005" data-entity-2="ent0019" data-link-type="dependency" data-source-line="56" id="lnk26"><path d="M749.98,310.9183 C768.82,344.9783 795.8661,393.8578 812.6461,424.1978" fill="none" id="AllowedOps-to-Agent" style="stroke:#2C3E50;stroke-width:1;"/><polygon fill="#2C3E50" points="815.55,429.4483,814.6945,419.6366,813.1301,425.0729,807.6939,423.5085,815.55,429.4483" style="stroke:#2C3E50;stroke-width:1;"/><text fill="#000000" font-family="sans-serif" font-size="13" lengthAdjust="spacing" textLength="52" x="775.81" y="356.2766">&#20801;&#35768;&#25805;&#20316;</text></g><!--link Context to Agent--><g class="link" data-entity-1="ent0007" data-entity-2="ent0019" data-link-type="dependency" data-source-line="59" id="lnk27"><path d="M906.84,310.9183 C887.8,344.9783 860.4676,393.871 843.5076,424.211" fill="none" id="Context-to-Agent" style="stroke:#2C3E50;stroke-width:1;"/><polygon fill="#2C3E50" points="840.58,429.4483,848.463,423.5441,843.0197,425.0839,841.4799,419.6406,840.58,429.4483" style="stroke:#2C3E50;stroke-width:1;"/><text fill="#000000" font-family="sans-serif" font-size="13" lengthAdjust="spacing" textLength="65" x="888.42" y="356.2766">&#25552;&#20379;&#19978;&#19979;&#25991;</text></g><!--link TaskSpec to Agent--><g class="link" data-entity-1="ent0008" data-entity-2="ent0019" data-link-type="dependency" data-source-line="60" id="lnk28"><path d="M1046.05,311.1383 C1035.77,319.0183 1024.58,327.3383 1014,334.7083 C964.04,369.5083 909.2809,403.3646 871.2109,426.2746" fill="none" id="TaskSpec-to-Agent" style="stroke:#2C3E50;stroke-width:1;"/><polygon fill="#2C3E50" points="866.07,429.3683,875.8438,428.155,870.3541,426.7902,871.7189,421.3004,866.07,429.3683" style="stroke:#2C3E50;stroke-width:1;"/><text fill="#000000" font-family="sans-serif" font-size="13" lengthAdjust="spacing" textLength="52" x="1000.32" y="356.2766">&#20219;&#21153;&#35828;&#26126;</text></g><!--link Standards to Agent--><g class="link" data-entity-1="ent0009" data-entity-2="ent0019" data-link-type="dependency" data-source-line="61" id="lnk29"><path d="M1202.18,311.1083 C1187.5,319.2783 1171.34,327.7583 1156,334.7083 C1060.43,377.9983 949.4696,414.6874 884.1896,434.9774" fill="none" id="Standards-to-Agent" style="stroke:#2C3E50;stroke-width:1;"/><polygon fill="#2C3E50" points="878.46,436.7583,888.2417,437.9068,883.2347,435.2742,885.8672,430.2673,878.46,436.7583" style="stroke:#2C3E50;stroke-width:1;"/><text fill="#000000" font-family="sans-serif" font-size="13" lengthAdjust="spacing" textLength="52" x="1131.17" y="356.2766">&#32534;&#30721;&#35268;&#33539;</text></g><!--link Agent to Code--><g class="link" data-entity-1="ent0019" data-entity-2="ent0021" data-link-type="dependency" data-source-line="64" id="lnk30"><path d="M802.01,476.5883 C790.89,486.2983 777.79,497.7783 766,508.1983 C753.5,519.2383 749.24,520.8683 738,533.1983 C710.75,563.0883 687.1142,595.8902 669.4742,621.9402" fill="none" id="Agent-to-Code" style="stroke:#2C3E50;stroke-width:1;"/><polygon fill="#2C3E50" points="666.11,626.9083,674.4684,621.6989,668.9135,622.7682,667.8442,617.2133,666.11,626.9083" style="stroke:#2C3E50;stroke-width:1;"/><text fill="#000000" font-family="sans-serif" font-size="13" lengthAdjust="spacing" textLength="52" x="767" y="521.7666">&#29983;&#25104;&#20195;&#30721;</text></g><!--link Agent to Docs--><g class="link" data-entity-1="ent0019" data-entity-2="ent0023" data-link-type="dependency" data-source-line="65" id="lnk31"><path d="M828,476.5283 C828,513.0983 828,579.3583 828,620.7083" fill="none" id="Agent-to-Docs" style="stroke:#2C3E50;stroke-width:1;"/><polygon fill="#2C3E50" points="828,626.7083,832,617.7083,828,621.7083,824,617.7083,828,626.7083" style="stroke:#2C3E50;stroke-width:1;"/><text fill="#000000" font-family="sans-serif" font-size="13" lengthAdjust="spacing" textLength="52" x="829" y="521.7666">&#29983;&#25104;&#25991;&#26723;</text></g><!--link Code to Tests--><g class="link" data-entity-1="ent0021" data-entity-2="ent0011" data-link-type="dependency" data-source-line="68" id="lnk32"><path d="M617.59,626.7083 C590.37,598.6783 546.5,559.9183 499,543.5283 C435.35,521.5583 256.91,514.8183 196,543.5283 C159.78,560.5983 135.6471,593.7933 119.8471,621.5633" fill="none" id="Code-to-Tests" style="stroke:#2C3E50;stroke-width:1;"/><polygon fill="#2C3E50" points="116.88,626.7783,124.8073,620.9339,119.3526,622.4325,117.854,616.9777,116.88,626.7783" style="stroke:#2C3E50;stroke-width:1;"/><text fill="#000000" font-family="sans-serif" font-size="13" lengthAdjust="spacing" textLength="52" x="449" y="521.7666">&#36816;&#34892;&#27979;&#35797;</text></g><!--link Code to Lint--><g class="link" data-entity-1="ent0021" data-entity-2="ent0012" data-link-type="dependency" data-source-line="69" id="lnk33"><path d="M617.59,626.7083 C590.37,598.6783 546.5,559.9183 499,543.5283 C430.52,519.8983 399.14,508.0183 336,543.5283 C304.6,561.1883 287.707,593.6356 277.597,621.1856" fill="none" id="Code-to-Lint" style="stroke:#2C3E50;stroke-width:1;"/><polygon fill="#2C3E50" points="275.53,626.8183,282.3857,619.7472,277.2525,622.1244,274.8754,616.9912,275.53,626.8183" style="stroke:#2C3E50;stroke-width:1;"/><text fill="#000000" font-family="sans-serif" font-size="13" lengthAdjust="spacing" textLength="52" x="373" y="521.7666">&#20195;&#30721;&#26816;&#26597;</text></g><!--link Code to Security--><g class="link" data-entity-1="ent0021" data-entity-2="ent0013" data-link-type="dependency" data-source-line="70" id="lnk34"><path d="M571.23,658.6783 C542.75,658.6783 516.54,658.6783 489.03,658.6783" fill="none" id="Code-to-Security" style="stroke:#2C3E50;stroke-width:1;"/><polygon fill="#2C3E50" points="483.03,658.6783,492.03,662.6783,488.03,658.6783,492.03,654.6783,483.03,658.6783" style="stroke:#2C3E50;stroke-width:1;"/><text fill="#000000" font-family="sans-serif" font-size="13" lengthAdjust="spacing" textLength="52" x="501.01" y="652.2466">&#23433;&#20840;&#25195;&#25551;</text></g><!--link Tests to PR--><g class="link" data-entity-1="ent0011" data-entity-2="ent0022" data-link-type="dependency" data-source-line="73" id="lnk35"><path d="M145.55,690.4683 C160.89,699.6183 178.6,708.6583 196,714.1683 C232.6,725.7583 245.15,711.4083 282,722.1683 C297.84,726.7983 299.04,734.9883 315,739.1683 C338.23,745.2583 510.07,735.3883 531,747.1683 C570.58,769.4483 592.3118,814.0746 603.4018,843.4646" fill="none" id="Tests-to-PR" style="stroke:#2ECC71;stroke-width:1;"/><polygon fill="#2ECC71" points="605.52,849.0783,606.0851,839.2456,603.7548,844.4002,598.6002,842.07,605.52,849.0783" style="stroke:#2ECC71;stroke-width:1;"/><text fill="#000000" font-family="sans-serif" font-size="13" lengthAdjust="spacing" textLength="26" x="316" y="735.7366">&#36890;&#36807;</text></g><!--link Lint to PR--><g class="link" data-entity-1="ent0012" data-entity-2="ent0022" data-link-type="dependency" data-source-line="74" id="lnk36"><path d="M302.28,690.4483 C312.81,698.6683 324.56,707.1983 336,714.1683 C347.29,721.0583 377.17,735.9583 390,739.1683 C420.45,746.7883 503.8,731.5083 531,747.1683 C570.25,769.7683 592.0077,814.0438 603.2077,843.3438" fill="none" id="Lint-to-PR" style="stroke:#2ECC71;stroke-width:1;"/><polygon fill="#2ECC71" points="605.35,848.9483,605.8728,839.1133,603.5647,844.2779,598.4002,841.9698,605.35,848.9483" style="stroke:#2ECC71;stroke-width:1;"/><text fill="#000000" font-family="sans-serif" font-size="13" lengthAdjust="spacing" textLength="26" x="391" y="735.7366">&#36890;&#36807;</text></g><!--link Security to PR--><g class="link" data-entity-1="ent0013" data-entity-2="ent0022" data-link-type="dependency" data-source-line="75" id="lnk37"><path d="M464.87,690.6183 C486.41,706.1183 511.44,726.0583 531,747.1683 C560.55,779.0683 583.7373,817.4517 598.1773,843.6917" fill="none" id="Security-to-PR" style="stroke:#2ECC71;stroke-width:1;"/><polygon fill="#2ECC71" points="601.07,848.9483,600.2353,839.1349,598.6594,844.5678,593.2265,842.9918,601.07,848.9483" style="stroke:#2ECC71;stroke-width:1;"/><text fill="#000000" font-family="sans-serif" font-size="13" lengthAdjust="spacing" textLength="26" x="523.96" y="735.7366">&#36890;&#36807;</text></g><!--link Docs to PR--><g class="link" data-entity-1="ent0023" data-entity-2="ent0022" data-link-type="dependency" data-source-line="76" id="lnk38"><path d="M796.74,690.5083 C753.06,733.5683 679.0728,806.5161 640.3128,844.7261" fill="none" id="Docs-to-PR" style="stroke:#2ECC71;stroke-width:1;"/><polygon fill="#2ECC71" points="636.04,848.9383,645.2574,845.4685,639.6007,845.4281,639.6411,839.7714,636.04,848.9383" style="stroke:#2ECC71;stroke-width:1;"/><text fill="#000000" font-family="sans-serif" font-size="13" lengthAdjust="spacing" textLength="52" x="765.47" y="735.7366">&#21253;&#21547;&#25991;&#26723;</text></g><!--link Tests to Classifier--><g class="link" data-entity-1="ent0011" data-entity-2="ent0015" data-link-type="dependency" data-source-line="79" id="lnk39"><path d="M140.44,690.4983 C160.55,705.7383 185.64,724.0683 209,739.1683 C267.21,776.8083 331.3646,812.3871 379.6046,838.0871" fill="none" id="Tests-to-Classifier" style="stroke:#E74C3C;stroke-width:1;"/><polygon fill="#E74C3C" points="384.9,840.9083,378.8377,833.1463,380.4872,838.5573,375.0762,840.2068,384.9,840.9083" style="stroke:#E74C3C;stroke-width:1;"/><text fill="#000000" font-family="sans-serif" font-size="13" lengthAdjust="spacing" textLength="26" x="210" y="735.7366">&#22833;&#36133;</text></g><!--link Lint to Classifier--><g class="link" data-entity-1="ent0012" data-entity-2="ent0015" data-link-type="dependency" data-source-line="80" id="lnk40"><path d="M250.57,690.4983 C245.14,705.8383 242.11,724.2283 250,739.1683 C275.99,788.3983 324.0187,820.1856 368.2387,841.5756" fill="none" id="Lint-to-Classifier" style="stroke:#E74C3C;stroke-width:1;"/><polygon fill="#E74C3C" points="373.64,844.1883,367.2799,836.6684,369.1389,842.011,363.7963,843.8701,373.64,844.1883" style="stroke:#E74C3C;stroke-width:1;"/><text fill="#000000" font-family="sans-serif" font-size="13" lengthAdjust="spacing" textLength="26" x="251" y="735.7366">&#22833;&#36133;</text></g><!--link Security to Classifier--><g class="link" data-entity-1="ent0013" data-entity-2="ent0015" data-link-type="dependency" data-source-line="81" id="lnk41"><path d="M421.78,690.5083 C426.71,730.6983 434.5498,794.6329 439.4798,834.8429" fill="none" id="Security-to-Classifier" style="stroke:#E74C3C;stroke-width:1;"/><polygon fill="#E74C3C" points="440.21,840.7983,443.085,831.3784,439.6015,835.8354,435.1445,832.352,440.21,840.7983" style="stroke:#E74C3C;stroke-width:1;"/><text fill="#000000" font-family="sans-serif" font-size="13" lengthAdjust="spacing" textLength="26" x="428.15" y="735.7366">&#22833;&#36133;</text></g><!--link Classifier to Feedback--><g class="link" data-entity-1="ent0015" data-entity-2="ent0016" data-link-type="dependency" data-source-line="84" id="lnk42"><path d="M444,904.3283 C444,930.0883 444,960.7183 444,986.5383" fill="none" id="Classifier-to-Feedback" style="stroke:#2C3E50;stroke-width:1;"/><polygon fill="#2C3E50" points="444,992.5383,448,983.5383,444,987.5383,440,983.5383,444,992.5383" style="stroke:#2C3E50;stroke-width:1;"/><text fill="#000000" font-family="sans-serif" font-size="13" lengthAdjust="spacing" textLength="52" x="445" y="959.5066">&#20998;&#31867;&#38169;&#35823;</text></g><!--link Feedback to Retry--><g class="link" data-entity-1="ent0016" data-entity-2="ent0017" data-link-type="dependency" data-source-line="85" id="lnk43"><path d="M446.02,1056.3883 C447.5,1079.1083 449.1196,1103.851 450.5996,1126.551" fill="none" id="Feedback-to-Retry" style="stroke:#2C3E50;stroke-width:1;"/><polygon fill="#2C3E50" points="450.99,1132.5383,454.396,1123.2971,450.6647,1127.5489,446.4129,1123.8176,450.99,1132.5383" style="stroke:#2C3E50;stroke-width:1;"/><text fill="#000000" font-family="sans-serif" font-size="13" lengthAdjust="spacing" textLength="52" x="450.04" y="1099.4766">&#20915;&#23450;&#37325;&#35797;</text></g><!--link Retry to Agent--><g class="link" data-entity-1="ent0017" data-entity-2="ent0019" data-link-type="dependency" data-source-line="86" id="lnk44"><path d="M511.16,1158.1983 C680.28,1142.2883 1160,1091.3483 1160,1025.4283 C1160,657.6783 1160,657.6783 1160,657.6783 C1160,527.1683 977.2078,478.6959 884.3278,462.2259" fill="none" id="Retry-to-Agent" style="stroke:#2C3E50;stroke-width:1;"/><polygon fill="#2C3E50" points="878.42,461.1783,886.5833,466.6883,883.3432,462.0513,887.9802,458.8111,878.42,461.1783" style="stroke:#2C3E50;stroke-width:1;"/><text fill="#000000" font-family="sans-serif" font-size="13" lengthAdjust="spacing" textLength="52" x="1161" y="877.7266">&#37325;&#26032;&#29983;&#25104;</text></g><!--link Classifier to GMN51--><g class="link" data-entity-1="ent0015" data-entity-2="ent0052" data-link-type="association" data-source-line="104" id="lnk53"><path d="M460.9,840.8483 C481.7,805.6683 520.74,751.2183 572.5,730.6683 C606.17,717.2983 864.83,717.2983 898.5,730.6683 C945.71,749.4183 978.13,801.0183 995.63,836.5583" fill="none" id="Classifier-GMN51" style="stroke:#2C3E50;stroke-width:1;stroke-dasharray:7,7;"/></g><g class="legend" data-source-line="123"><rect fill="none" height="96.4414" rx="7.5" ry="7.5" style="stroke:#000000;stroke-width:1;" width="158.5518" x="1171.4482" y="1228.8883"/><text fill="#000000" font-family="sans-serif" font-size="14" font-weight="bold" lengthAdjust="spacing" textLength="28" x="1176.4482" y="1249.4234">&#39068;&#33394;</text><text fill="#000000" font-family="sans-serif" font-size="14" font-weight="bold" lengthAdjust="spacing" textLength="56" x="1213.6768" y="1249.4234">&#26694;&#26550;&#23618;&#32423;</text><text fill="#000000" filter="url(#bcj1jewway9pl0)" font-family="sans-serif" font-size="14" lengthAdjust="spacing" textLength="4.4297" x="1176.4482" y="1265.9117">&#160;</text><text fill="#000000" font-family="sans-serif" font-size="14" lengthAdjust="spacing" textLength="107.0781" x="1213.4922" y="1265.9117">Constrain (&#32422;&#26463;)</text><text fill="#000000" filter="url(#bcj1jewway9pl1)" font-family="sans-serif" font-size="14" lengthAdjust="spacing" textLength="4.4297" x="1176.4482" y="1282.4">&#160;</text><text fill="#000000" font-family="sans-serif" font-size="14" lengthAdjust="spacing" textLength="86.8027" x="1213.4922" y="1282.4">Inform (&#21578;&#30693;)</text><text fill="#000000" filter="url(#bcj1jewway9pl2)" font-family="sans-serif" font-size="14" lengthAdjust="spacing" textLength="4.4297" x="1176.4482" y="1298.8883">&#160;</text><text fill="#000000" font-family="sans-serif" font-size="14" lengthAdjust="spacing" textLength="80.7256" x="1213.4922" y="1298.8883">Verify (&#39564;&#35777;)</text><text fill="#000000" filter="url(#bcj1jewway9pl3)" font-family="sans-serif" font-size="14" lengthAdjust="spacing" textLength="4.4297" x="1176.4482" y="1315.3766">&#160;</text><text fill="#000000" font-family="sans-serif" font-size="14" lengthAdjust="spacing" textLength="91.4854" x="1213.4922" y="1315.3766">Correct (&#32416;&#27491;)</text><line style="stroke:#000000;stroke-width:1;" x1="1176.4482" x2="1325" y1="1235.8883" y2="1235.8883"/><line style="stroke:#000000;stroke-width:1;" x1="1176.4482" x2="1325" y1="1252.3766" y2="1252.3766"/><line style="stroke:#000000;stroke-width:1;" x1="1176.4482" x2="1325" y1="1268.8648" y2="1268.8648"/><line style="stroke:#000000;stroke-width:1;" x1="1176.4482" x2="1325" y1="1285.3531" y2="1285.3531"/><line style="stroke:#000000;stroke-width:1;" x1="1176.4482" x2="1325" y1="1301.8414" y2="1301.8414"/><line style="stroke:#000000;stroke-width:1;" x1="1176.4482" x2="1325" y1="1318.3297" y2="1318.3297"/><line style="stroke:#000000;stroke-width:1;" x1="1176.4482" x2="1176.4482" y1="1235.8883" y2="1318.3297"/><line style="stroke:#000000;stroke-width:1;" x1="1209.0625" x2="1209.0625" y1="1235.8883" y2="1318.3297"/><line style="stroke:#000000;stroke-width:1;" x1="1325" x2="1325" y1="1235.8883" y2="1318.3297"/></g><?plantuml-src VLTRKnD957wVNz653niVA5PmozMAgTA8krQvknHOlXWV9iaGHvAPr6GefTQjWkMMG08eoYw2G808gqMoAW8c4FxBrdJFvCc_iAUxXxaPhRpCEVsTFfS-t-cEBkjf2VqiQegKow5U9IKhagJ9IWhXmufniae-ZfcxitYb-Vau7xrrDuf8UOgi7Nm-BWX2RaXMig8cPb1SJ0obD7LOIKRLjAgXSpTxwS-3IAYPhAf8YZwWZu33uKowsxCgQfhwo3RjZlRq_l2zPr5HTGdzBY1qFU3bqGDPbwXUrPAIndNnD824FmJXEuIhBurFXTRcgbLuJpOEyV6yPrDDIkYYaagttJaSZgfAJjT4MM5o98BEzLww6Es9jiFUKWPLBUC0UovU_l76zNR0kr3OmH47sDqRZLwwqDwxHkDpa3TxBaSlTDEitB0xd11H9pBhhychTVpkpmxK9dQQeLD_r45UZRUM5yZS3iuVn9G-ISl8kPoiAXr8p25N31WjJHkD0wiuZbVsOyfD6I8OIAXPYHbHaKa1cyKIT92vV88NIhZq8gPSIwVLHr8I_PRDCJjR1Z6G6oyf98QVpfZh5JinVw43MRNAdyoLgd4qOnpDGh2GcAO-X1qHb4EN7klCeVtjjpGQ3JnJjchxvE-vc797p0sXWQoKO0PKeeBVmZnUCZV6h9q9g4SCofoaV1c0u9EYbkIfEL8WCzu3a5dhJT6gZTcP-JiZa9ar_GRFxEBY4lauQzLe6OTrDIFgKCWxKaxd_jXNCAyjY99iZPBrIaovBIjwrvqH-yIev4VZQW5FxfB2Mp8_7rC6fCIm9kiZSCWYRumppHTTo5gLzU06sTjoUj3NmS6pUhvirMeuFsM-QyIKNY2_Xg9f4TfkK9OqVbAE60XpljHwdSVDD-PS3VfGaf9qzg3RgfhbhMXh0WwdIr0vibfdBTylwTe8cAHaViXCfdbbmL1CGLRNRg5hAR3iO97V0v4irwtn4-DayJvhNBheix2QYtYwRjHtpC8_jfNvV9ta5_Wfn9IV94NIsA51lqZtUJScAMFkzVLt_TBFD7tzL8Rs9UMjc793JGndm96e0ntPEcXoVBWvZ4V_JJtZyS24vbgoT89dDepwt9c-Q8qMMw_Mk8YC8-ZtNMWAgxP9vxXBUTJP6R51LsmFV5W83iDz45Y18Sk7Wk2IsOV1asDMzOYF0ZQLpnZj2zpXBVcmYoShP_g2O3FMjoMPNp2QAuw9S4PI7yZBQi5Xepz33urfQ5nFm_AUfi3Lr90U6BNp7AndbHwEiyhFaExg41tIv6Jak_FiahoYZBvWR9qkMEKY9xgxIjdAKd89xIuwL8LQUpZikcwDlhHEfwt36cvEq1vfdCA5Q5RtyFO-ZO6xxhndtqVtOSk-Vdgup4nWlh-wwZZ_Ae9LvSjLN9p42s-_gDBsEsk_uePQtsmVAh-CwMRkdA2RCdCdv6-ZlA5_6ydePWytF3NP6j_bhoB10wOduKmZi6IpZSyvmT5J41y-W9Zw0DpXWqdWIX-rfajawL_UIoxVxNPcBo9TpI9rq7zXX-CH3ZItwqPpDjmLZu0MPlFhCRAtYVCRhULjVfDxr5RrjFLN5TUcMiyg7ZNu1W90ikR9Uq5IakmT9lXykzSfE7Ru22N2rK-ERp8pIbPhP2Dld9R9M8tfZAENb9mx4pY_p45h1sHjmcw7W3DDJZtGcJlldG0UlTU8uywgxP4FB_WIuxAvia_cAiPf5M-N6A8rsh2QJpq8Faziqh4zgashMlOWZ7gTFeSRip2RWk75LHskOnhVsHrCG-FjV5Z1auUjnQOJdPQ3ETNr480en1sUv_hXk0hZjKlAfMdpXcWBynKzbq0XI12lpNBcStLS4uUaZAYW42Vz-M1Oz9QYh-fVLVP63YVeLNp5fc64Defd3j3umbqC4a5NVNF3OyjPmcmzn6nhQpF7ZIajfQZ0pXAsV7ALlylXm_v70Tmowple2LqCKxOu_X1u03do1BbFtX1ly_C-F7zvU_3sCpB4xnm_s2w42xPVPY6UW1_C7-2-IFYp9yG70qL3UZn9uNy0?></g></svg>